<?xml version="1.0" encoding="utf-8" standalone="no"?>
<!DOCTYPE svg PUBLIC "-//W3C//DTD SVG 1.1//EN"
  "http://www.w3.org/Graphics/SVG/1.1/DTD/svg11.dtd">
<svg xmlns:xlink="http://www.w3.org/1999/xlink" width="691.2pt" height="460.8pt" viewBox="0 0 691.2 460.8" xmlns="http://www.w3.org/2000/svg" version="1.1">
 <metadata>
  <rdf:RDF xmlns:dc="http://purl.org/dc/elements/1.1/" xmlns:cc="http://creativecommons.org/ns#" xmlns:rdf="http://www.w3.org/1999/02/22-rdf-syntax-ns#">
   <cc:Work>
    <dc:type rdf:resource="http://purl.org/dc/dcmitype/StillImage"/>
    <dc:date>2026-09-11T15:37:20.898621</dc:date>
    <dc:format>image/svg+xml</dc:format>
    <dc:creator>
     <cc:Agent>
      <dc:title>Matplotlib v3.11.1, https://matplotlib.org/</dc:title>
     </cc:Agent>
    </dc:creator>
   </cc:Work>
  </rdf:RDF>
 </metadata>
 <defs>
  <style type="text/css">*{stroke-linejoin: round; stroke-linecap: butt}</style>
 </defs>
 <g id="figure_1">
  <g id="patch_1">
   <path d="M 0 460.8 
L 691.2 460.8 
L 691.2 0 
L 0 0 
z
" style="fill: #ffffff"/>
  </g>
  <g id="axes_1">
   <g id="patch_2">
    <path d="M 97.03293 227.210139 
Q 345.597735 241.276792 593.604416 227.24198 
" clip-path="url(#p8a6feefba0)" style="fill: none; stroke: #dddcdc; stroke-width: 0.5; stroke-linecap: round"/>
    <path d="M 587.4445 224.585772 
L 593.604416 227.24198 
L 587.783501 230.576188 
z
" clip-path="url(#p8a6feefba0)" style="fill: #dddcdc; stroke: #dddcdc; stroke-width: 0.5; stroke-linecap: round"/>
   </g>
   <g id="patch_3">
    <path d="M 594.159028 225.540795 
Q 543.254133 223.180913 492.907655 225.514868 
" clip-path="url(#p8a6feefba0)" style="fill: none; stroke: #dddcdc; stroke-width: 0.5; stroke-linecap: round"/>
    <path d="M 499.040143 228.233801 
L 492.907655 225.514868 
L 498.762294 222.240238 
z
" clip-path="url(#p8a6feefba0)" style="fill: #dddcdc; stroke: #dddcdc; stroke-width: 0.5; stroke-linecap: round"/>
   </g>
   <g id="patch_4">
    <path d="M 462.389889 225.540795 
Q 411.484994 223.180913 361.138517 225.514868 
" clip-path="url(#p8a6feefba0)" style="fill: none; stroke: #dddcdc; stroke-width: 0.5; stroke-linecap: round"/>
    <path d="M 367.271005 228.233801 
L 361.138517 225.514868 
L 366.993156 222.240238 
z
" clip-path="url(#p8a6feefba0)" style="fill: #dddcdc; stroke: #dddcdc; stroke-width: 0.5; stroke-linecap: round"/>
   </g>
   <g id="patch_5">
    <path d="M 330.620751 225.540795 
Q 279.715856 223.180913 229.369378 225.514868 
" clip-path="url(#p8a6feefba0)" style="fill: none; stroke: #dddcdc; stroke-width: 0.5; stroke-linecap: round"/>
    <path d="M 235.501866 228.233801 
L 229.369378 225.514868 
L 235.224017 222.240238 
z
" clip-path="url(#p8a6feefba0)" style="fill: #dddcdc; stroke: #dddcdc; stroke-width: 0.5; stroke-linecap: round"/>
   </g>
   <g id="patch_6">
    <path d="M 228.810111 227.185052 
Q 345.600919 233.395908 462.391728 227.184954 
" clip-path="url(#p8a6feefba0)" style="fill: none; stroke: #dddcdc; stroke-width: 0.5; stroke-linecap: round"/>
    <path d="M 466.184071 242.004473 
L 463.188304 242.163788 
L 461.595151 212.20612 
L 464.590918 212.046805 
" clip-path="url(#p8a6feefba0)" style="fill: none; stroke: #dddcdc; stroke-width: 0.5; stroke-linecap: round"/>
   </g>
   <g id="PathCollection_1">
    <path d="M 82.061723 235.488884 
C 84.48873 235.488884 86.81666 234.524624 88.532813 232.808471 
C 90.248966 231.092318 91.213226 228.764388 91.213226 226.337381 
C 91.213226 223.910374 90.248966 221.582445 88.532813 219.866292 
C 86.81666 218.150139 84.48873 217.185878 82.061723 217.185878 
C 79.634716 217.185878 77.306787 218.150139 75.590634 219.866292 
C 73.874481 221.582445 72.91022 223.910374 72.91022 226.337381 
C 72.91022 228.764388 73.874481 231.092318 75.590634 232.808471 
C 77.306787 234.524624 79.634716 235.488884 82.061723 235.488884 
z
" clip-path="url(#p8a6feefba0)" style="fill: #41049d; stroke: #20242a; stroke-width: 1.2"/>
    <path d="M 609.138277 234.243075 
C 611.234892 234.243075 613.245916 233.410081 614.728447 231.927551 
C 616.210977 230.445021 617.043971 228.433996 617.043971 226.337381 
C 617.043971 224.240766 616.210977 222.229742 614.728447 220.747211 
C 613.245916 219.264681 611.234892 218.431687 609.138277 218.431687 
C 607.041662 218.431687 605.030637 219.264681 603.548107 220.747211 
C 602.065577 222.229742 601.232583 224.240766 601.232583 226.337381 
C 601.232583 228.433996 602.065577 230.445021 603.548107 231.927551 
C 605.030637 233.410081 607.041662 234.243075 609.138277 234.243075 
z
" clip-path="url(#p8a6feefba0)" style="fill: #0d0887; stroke: #20242a; stroke-width: 1.2"/>
    <path d="M 477.369138 234.243075 
C 479.465753 234.243075 481.476778 233.410081 482.959308 231.927551 
C 484.441839 230.445021 485.274833 228.433996 485.274833 226.337381 
C 485.274833 224.240766 484.441839 222.229742 482.959308 220.747211 
C 481.476778 219.264681 479.465753 218.431687 477.369138 218.431687 
C 475.272524 218.431687 473.261499 219.264681 471.778969 220.747211 
C 470.296438 222.229742 469.463444 224.240766 469.463444 226.337381 
C 469.463444 228.433996 470.296438 230.445021 471.778969 231.927551 
C 473.261499 233.410081 475.272524 234.243075 477.369138 234.243075 
z
" clip-path="url(#p8a6feefba0)" style="fill: #0d0887; stroke: #20242a; stroke-width: 1.2"/>
    <path d="M 345.6 234.243075 
C 347.696615 234.243075 349.70764 233.410081 351.19017 231.927551 
C 352.6727 230.445021 353.505694 228.433996 353.505694 226.337381 
C 353.505694 224.240766 352.6727 222.229742 351.19017 220.747211 
C 349.70764 219.264681 347.696615 218.431687 345.6 218.431687 
C 343.503385 218.431687 341.49236 219.264681 340.00983 220.747211 
C 338.5273 222.229742 337.694306 224.240766 337.694306 226.337381 
C 337.694306 228.433996 338.5273 230.445021 340.00983 231.927551 
C 341.49236 233.410081 343.503385 234.243075 345.6 234.243075 
z
" clip-path="url(#p8a6feefba0)" style="fill: #0d0887; stroke: #20242a; stroke-width: 1.2"/>
    <path d="M 213.830862 234.243075 
C 215.927476 234.243075 217.938501 233.410081 219.421031 231.927551 
C 220.903562 230.445021 221.736556 228.433996 221.736556 226.337381 
C 221.736556 224.240766 220.903562 222.229742 219.421031 220.747211 
C 217.938501 219.264681 215.927476 218.431687 213.830862 218.431687 
C 211.734247 218.431687 209.723222 219.264681 208.240692 220.747211 
C 206.758161 222.229742 205.925167 224.240766 205.925167 226.337381 
C 205.925167 228.433996 206.758161 230.445021 208.240692 231.927551 
C 209.723222 233.410081 211.734247 234.243075 213.830862 234.243075 
z
" clip-path="url(#p8a6feefba0)" style="fill: #0d0887; stroke: #20242a; stroke-width: 1.2"/>
   </g>
   <g id="text_1">
    <!-- MAPK-like signaling -->
    <g transform="translate(288.012188 214.161424) scale(0.12 -0.12)">
     <defs>
      <path id="DejaVuSans-30" d="M 628 4666 
L 1569 4666 
L 2759 1491 
L 3956 4666 
L 4897 4666 
L 4897 0 
L 4281 0 
L 4281 4097 
L 3078 897 
L 2444 897 
L 1241 4097 
L 1241 0 
L 628 0 
L 628 4666 
z
" transform="scale(0.015625)"/>
      <path id="DejaVuSans-24" d="M 2188 4044 
L 1331 1722 
L 3047 1722 
L 2188 4044 
z
M 1831 4666 
L 2547 4666 
L 4325 0 
L 3669 0 
L 3244 1197 
L 1141 1197 
L 716 0 
L 50 0 
L 1831 4666 
z
" transform="scale(0.015625)"/>
      <path id="DejaVuSans-33" d="M 1259 4147 
L 1259 2394 
L 2053 2394 
Q 2494 2394 2734 2622 
Q 2975 2850 2975 3272 
Q 2975 3691 2734 3919 
Q 2494 4147 2053 4147 
L 1259 4147 
z
M 628 4666 
L 2053 4666 
Q 2838 4666 3239 4311 
Q 3641 3956 3641 3272 
Q 3641 2581 3239 2228 
Q 2838 1875 2053 1875 
L 1259 1875 
L 1259 0 
L 628 0 
L 628 4666 
z
" transform="scale(0.015625)"/>
      <path id="DejaVuSans-2e" d="M 628 4666 
L 1259 4666 
L 1259 2694 
L 3353 4666 
L 4166 4666 
L 1850 2491 
L 4331 0 
L 3500 0 
L 1259 2247 
L 1259 0 
L 628 0 
L 628 4666 
z
" transform="scale(0.015625)"/>
      <path id="DejaVuSans-10" d="M 313 2009 
L 1997 2009 
L 1997 1497 
L 313 1497 
L 313 2009 
z
" transform="scale(0.015625)"/>
      <path id="DejaVuSans-4f" d="M 603 4863 
L 1178 4863 
L 1178 0 
L 603 0 
L 603 4863 
z
" transform="scale(0.015625)"/>
      <path id="DejaVuSans-4c" d="M 603 3500 
L 1178 3500 
L 1178 0 
L 603 0 
L 603 3500 
z
M 603 4863 
L 1178 4863 
L 1178 4134 
L 603 4134 
L 603 4863 
z
" transform="scale(0.015625)"/>
      <path id="DejaVuSans-4e" d="M 581 4863 
L 1159 4863 
L 1159 1991 
L 2875 3500 
L 3609 3500 
L 1753 1863 
L 3688 0 
L 2938 0 
L 1159 1709 
L 1159 0 
L 581 0 
L 581 4863 
z
" transform="scale(0.015625)"/>
      <path id="DejaVuSans-48" d="M 3597 1894 
L 3597 1613 
L 953 1613 
Q 991 1019 1311 708 
Q 1631 397 2203 397 
Q 2534 397 2845 478 
Q 3156 559 3463 722 
L 3463 178 
Q 3153 47 2828 -22 
Q 2503 -91 2169 -91 
Q 1331 -91 842 396 
Q 353 884 353 1716 
Q 353 2575 817 3079 
Q 1281 3584 2069 3584 
Q 2775 3584 3186 3129 
Q 3597 2675 3597 1894 
z
M 3022 2063 
Q 3016 2534 2758 2815 
Q 2500 3097 2075 3097 
Q 1594 3097 1305 2825 
Q 1016 2553 972 2059 
L 3022 2063 
z
" transform="scale(0.015625)"/>
      <path id="DejaVuSans-3" transform="scale(0.015625)"/>
      <path id="DejaVuSans-56" d="M 2834 3397 
L 2834 2853 
Q 2591 2978 2328 3040 
Q 2066 3103 1784 3103 
Q 1356 3103 1142 2972 
Q 928 2841 928 2578 
Q 928 2378 1081 2264 
Q 1234 2150 1697 2047 
L 1894 2003 
Q 2506 1872 2764 1633 
Q 3022 1394 3022 966 
Q 3022 478 2636 193 
Q 2250 -91 1575 -91 
Q 1294 -91 989 -36 
Q 684 19 347 128 
L 347 722 
Q 666 556 975 473 
Q 1284 391 1588 391 
Q 1994 391 2212 530 
Q 2431 669 2431 922 
Q 2431 1156 2273 1281 
Q 2116 1406 1581 1522 
L 1381 1569 
Q 847 1681 609 1914 
Q 372 2147 372 2553 
Q 372 3047 722 3315 
Q 1072 3584 1716 3584 
Q 2034 3584 2315 3537 
Q 2597 3491 2834 3397 
z
" transform="scale(0.015625)"/>
      <path id="DejaVuSans-4a" d="M 2906 1791 
Q 2906 2416 2648 2759 
Q 2391 3103 1925 3103 
Q 1463 3103 1205 2759 
Q 947 2416 947 1791 
Q 947 1169 1205 825 
Q 1463 481 1925 481 
Q 2391 481 2648 825 
Q 2906 1169 2906 1791 
z
M 3481 434 
Q 3481 -459 3084 -895 
Q 2688 -1331 1869 -1331 
Q 1566 -1331 1297 -1286 
Q 1028 -1241 775 -1147 
L 775 -588 
Q 1028 -725 1275 -790 
Q 1522 -856 1778 -856 
Q 2344 -856 2625 -561 
Q 2906 -266 2906 331 
L 2906 616 
Q 2728 306 2450 153 
Q 2172 0 1784 0 
Q 1141 0 747 490 
Q 353 981 353 1791 
Q 353 2603 747 3093 
Q 1141 3584 1784 3584 
Q 2172 3584 2450 3431 
Q 2728 3278 2906 2969 
L 2906 3500 
L 3481 3500 
L 3481 434 
z
" transform="scale(0.015625)"/>
      <path id="DejaVuSans-51" d="M 3513 2113 
L 3513 0 
L 2938 0 
L 2938 2094 
Q 2938 2591 2744 2837 
Q 2550 3084 2163 3084 
Q 1697 3084 1428 2787 
Q 1159 2491 1159 1978 
L 1159 0 
L 581 0 
L 581 3500 
L 1159 3500 
L 1159 2956 
Q 1366 3272 1645 3428 
Q 1925 3584 2291 3584 
Q 2894 3584 3203 3211 
Q 3513 2838 3513 2113 
z
" transform="scale(0.015625)"/>
      <path id="DejaVuSans-44" d="M 2194 1759 
Q 1497 1759 1228 1600 
Q 959 1441 959 1056 
Q 959 750 1161 570 
Q 1363 391 1709 391 
Q 2188 391 2477 730 
Q 2766 1069 2766 1631 
L 2766 1759 
L 2194 1759 
z
M 3341 1997 
L 3341 0 
L 2766 0 
L 2766 531 
Q 2569 213 2275 61 
Q 1981 -91 1556 -91 
Q 1019 -91 701 211 
Q 384 513 384 1019 
Q 384 1609 779 1909 
Q 1175 2209 1959 2209 
L 2766 2209 
L 2766 2266 
Q 2766 2663 2505 2880 
Q 2244 3097 1772 3097 
Q 1472 3097 1187 3025 
Q 903 2953 641 2809 
L 641 3341 
Q 956 3463 1253 3523 
Q 1550 3584 1831 3584 
Q 2591 3584 2966 3190 
Q 3341 2797 3341 1997 
z
" transform="scale(0.015625)"/>
     </defs>
     <use xlink:href="#DejaVuSans-30"/>
     <use xlink:href="#DejaVuSans-24" transform="translate(86.28125 0)"/>
     <use xlink:href="#DejaVuSans-33" transform="translate(154.6875 0)"/>
     <use xlink:href="#DejaVuSans-2e" transform="translate(214.984375 0)"/>
     <use xlink:href="#DejaVuSans-10" transform="translate(270.0625 0)"/>
     <use xlink:href="#DejaVuSans-4f" transform="translate(306.140625 0)"/>
     <use xlink:href="#DejaVuSans-4c" transform="translate(333.921875 0)"/>
     <use xlink:href="#DejaVuSans-4e" transform="translate(361.703125 0)"/>
     <use xlink:href="#DejaVuSans-48" transform="translate(416.046875 0)"/>
     <use xlink:href="#DejaVuSans-3" transform="translate(477.578125 0)"/>
     <use xlink:href="#DejaVuSans-56" transform="translate(509.359375 0)"/>
     <use xlink:href="#DejaVuSans-4c" transform="translate(561.453125 0)"/>
     <use xlink:href="#DejaVuSans-4a" transform="translate(589.234375 0)"/>
     <use xlink:href="#DejaVuSans-51" transform="translate(652.71875 0)"/>
     <use xlink:href="#DejaVuSans-44" transform="translate(716.09375 0)"/>
     <use xlink:href="#DejaVuSans-4f" transform="translate(777.375 0)"/>
     <use xlink:href="#DejaVuSans-4c" transform="translate(805.15625 0)"/>
     <use xlink:href="#DejaVuSans-51" transform="translate(832.9375 0)"/>
     <use xlink:href="#DejaVuSans-4a" transform="translate(896.3125 0)"/>
    </g>
   </g>
   <g id="text_2">
    <!-- EGFR -->
    <g transform="translate(71.354848 228.415506) scale(0.08 -0.08)">
     <defs>
      <path id="DejaVuSans-28" d="M 628 4666 
L 3578 4666 
L 3578 4134 
L 1259 4134 
L 1259 2753 
L 3481 2753 
L 3481 2222 
L 1259 2222 
L 1259 531 
L 3634 531 
L 3634 0 
L 628 0 
L 628 4666 
z
" transform="scale(0.015625)"/>
      <path id="DejaVuSans-2a" d="M 3809 666 
L 3809 1919 
L 2778 1919 
L 2778 2438 
L 4434 2438 
L 4434 434 
Q 4069 175 3628 42 
Q 3188 -91 2688 -91 
Q 1594 -91 976 548 
Q 359 1188 359 2328 
Q 359 3472 976 4111 
Q 1594 4750 2688 4750 
Q 3144 4750 3555 4637 
Q 3966 4525 4313 4306 
L 4313 3634 
Q 3963 3931 3569 4081 
Q 3175 4231 2741 4231 
Q 1884 4231 1454 3753 
Q 1025 3275 1025 2328 
Q 1025 1384 1454 906 
Q 1884 428 2741 428 
Q 3075 428 3337 486 
Q 3600 544 3809 666 
z
" transform="scale(0.015625)"/>
      <path id="DejaVuSans-29" d="M 628 4666 
L 3309 4666 
L 3309 4134 
L 1259 4134 
L 1259 2759 
L 3109 2759 
L 3109 2228 
L 1259 2228 
L 1259 0 
L 628 0 
L 628 4666 
z
" transform="scale(0.015625)"/>
      <path id="DejaVuSans-35" d="M 2841 2188 
Q 3044 2119 3236 1894 
Q 3428 1669 3622 1275 
L 4263 0 
L 3584 0 
L 2988 1197 
Q 2756 1666 2539 1819 
Q 2322 1972 1947 1972 
L 1259 1972 
L 1259 0 
L 628 0 
L 628 4666 
L 2053 4666 
Q 2853 4666 3247 4331 
Q 3641 3997 3641 3322 
Q 3641 2881 3436 2590 
Q 3231 2300 2841 2188 
z
M 1259 4147 
L 1259 2491 
L 2053 2491 
Q 2509 2491 2742 2702 
Q 2975 2913 2975 3322 
Q 2975 3731 2742 3939 
Q 2509 4147 2053 4147 
L 1259 4147 
z
" transform="scale(0.015625)"/>
     </defs>
     <use xlink:href="#DejaVuSans-28"/>
     <use xlink:href="#DejaVuSans-2a" transform="translate(63.1875 0)"/>
     <use xlink:href="#DejaVuSans-29" transform="translate(140.671875 0)"/>
     <use xlink:href="#DejaVuSans-35" transform="translate(198.1875 0)"/>
    </g>
   </g>
   <g id="text_3">
    <!-- RAS -->
    <g transform="translate(601.245152 228.415506) scale(0.08 -0.08)">
     <defs>
      <path id="DejaVuSans-36" d="M 3425 4513 
L 3425 3897 
Q 3066 4069 2747 4153 
Q 2428 4238 2131 4238 
Q 1616 4238 1336 4038 
Q 1056 3838 1056 3469 
Q 1056 3159 1242 3001 
Q 1428 2844 1947 2747 
L 2328 2669 
Q 3034 2534 3370 2195 
Q 3706 1856 3706 1288 
Q 3706 609 3251 259 
Q 2797 -91 1919 -91 
Q 1588 -91 1214 -16 
Q 841 59 441 206 
L 441 856 
Q 825 641 1194 531 
Q 1563 422 1919 422 
Q 2459 422 2753 634 
Q 3047 847 3047 1241 
Q 3047 1584 2836 1778 
Q 2625 1972 2144 2069 
L 1759 2144 
Q 1053 2284 737 2584 
Q 422 2884 422 3419 
Q 422 4038 858 4394 
Q 1294 4750 2059 4750 
Q 2388 4750 2728 4690 
Q 3069 4631 3425 4513 
z
" transform="scale(0.015625)"/>
     </defs>
     <use xlink:href="#DejaVuSans-35"/>
     <use xlink:href="#DejaVuSans-24" transform="translate(65.4375 0)"/>
     <use xlink:href="#DejaVuSans-36" transform="translate(133.84375 0)"/>
    </g>
   </g>
   <g id="text_4">
    <!-- RAF -->
    <g transform="translate(469.714763 228.415506) scale(0.08 -0.08)">
     <use xlink:href="#DejaVuSans-35"/>
     <use xlink:href="#DejaVuSans-24" transform="translate(65.4375 0)"/>
     <use xlink:href="#DejaVuSans-29" transform="translate(133.84375 0)"/>
    </g>
   </g>
   <g id="text_5">
    <!-- MEK -->
    <g transform="translate(336.998125 228.415506) scale(0.08 -0.08)">
     <use xlink:href="#DejaVuSans-30"/>
     <use xlink:href="#DejaVuSans-28" transform="translate(86.28125 0)"/>
     <use xlink:href="#DejaVuSans-2e" transform="translate(149.46875 0)"/>
    </g>
   </g>
   <g id="text_6">
    <!-- ERK -->
    <g transform="translate(205.900862 228.415506) scale(0.08 -0.08)">
     <use xlink:href="#DejaVuSans-28"/>
     <use xlink:href="#DejaVuSans-35" transform="translate(63.1875 0)"/>
     <use xlink:href="#DejaVuSans-2e" transform="translate(132.671875 0)"/>
    </g>
   </g>
  </g>
 </g>
 <defs>
  <clipPath id="p8a6feefba0">
   <rect x="3.00024" y="220.161424" width="685.19952" height="20.477152"/>
  </clipPath>
 </defs>
</svg>
